<svg width="18" height="12" viewBox="0 0 18 12" fill="none" xmlns="http://www.w3.org/2000/svg"><path fill-rule="evenodd" clip-rule="evenodd" d="M.563 0h16.875c.31 0 .562.224.562.5v11c0 .276-.252.5-.563.5H.563C.253 12 0 11.776 0 11.5V.5C0 .224.252 0 .563 0Z" fill="#273C83"/><path fill-rule="evenodd" clip-rule="evenodd" d="M1.295 0H.563C.252 0 0 .224 0 .5v1.733l6.7 3.868L0 9.968V11.5c0 .276.252.5.563.5h1.08l7.638-4.409L16.92 12h.518c.311 0 .563-.224.563-.5V9.643l-6.137-3.542L18 2.558V.5c0-.276-.252-.5-.563-.5h-.17L9.282 4.61 1.295 0Z" fill="#F7F7F7"/><path fill-rule="evenodd" clip-rule="evenodd" d="M18 .634v1.192l-7.686 4.437L18 10.7v.8c0 .12-.048.232-.128.318l-8.59-4.959-8.874 5.122C.173 11.921 0 11.729 0 11.5v-.476l8.248-4.761L0 1.502V.5A.45.45 0 0 1 .034.329L9.28 5.667 18 .634Z" fill="#DC1E35"/><path fill-rule="evenodd" clip-rule="evenodd" d="M11.25 4V0h-4.5v4H0v4h6.75v4h4.5V8H18V4h-6.75Z" fill="#F7F7F7"/><path fill-rule="evenodd" clip-rule="evenodd" d="M10.125 5H18v2h-7.875v5h-2.25V7H0V5h7.875V0h2.25v5Z" fill="#DC1E35"/><path opacity=".2" fill-rule="evenodd" clip-rule="evenodd" d="M17.438 0H.563C.252 0 0 .224 0 .5v11c0 .276.252.5.563.5h16.875c.31 0 .562-.224.562-.5V.5c0-.276-.252-.5-.563-.5ZM.563 11.5V.5h16.875v11H.563Z" fill="#000"/></svg>