<svg width="24" height="16" viewBox="0 0 24 16" fill="none" xmlns="http://www.w3.org/2000/svg"><path fill-rule="evenodd" clip-rule="evenodd" d="M1 0h22c.552 0 1 .398 1 .889V15.11c0 .491-.448.889-1 .889H1c-.552 0-1-.398-1-.889V.89C0 .398.448 0 1 0Z" fill="#DE2910"/><path fill-rule="evenodd" clip-rule="evenodd" d="M13.049 4.683c-.24.656-.3.823-1.302 1.567-.637.474-.418.883-.314 1.077.06.11.082.151-.114.095-1.092-.316-1.593-1.62-1.12-2.914.473-1.294 1.741-2.088 2.833-1.772-.24.656-.123 1.03-.026 1.336.066.213.123.392.043.611ZM9.675 7.61c-.487-1.076-.647-1.179-1.274-1.584-.21-.136-.42-.143-.667-.153-.358-.013-.794-.03-1.422-.435-.675.826-.218 2.143 1.02 2.943 1.239.8 2.79.779 3.464-.047.121-.148.07-.142-.066-.126-.24.028-.744.087-1.055-.598Zm4.168-.028c1.105.616 1.303.616 2.078.616.26 0 .434-.103.64-.225.299-.176.663-.391 1.439-.391 0-1.02-1.24-1.848-2.771-1.848s-2.772.828-2.772 1.848c0 .183.037.152.137.067.175-.148.544-.46 1.249-.067Zm-.778 2.183c-.317 1.125-.256 1.291-.016 1.947.08.22.244.335.439.472.28.198.622.439.862 1.095 1.092-.315 1.594-1.62 1.12-2.914-.473-1.294-1.741-2.087-2.833-1.772-.195.057-.15.078-.03.137.213.102.66.318.458 1.035Zm-4.664.605c.627-.405.787-.508 2.089-.588.829-.05.922-.495.966-.707.025-.12.034-.165.155-.017.675.826.218 2.143-1.02 2.943-1.239.8-2.79.779-3.465-.047.628-.405.78-.77.905-1.067.087-.207.16-.382.37-.517Z" fill="#fff"/><path opacity=".2" fill-rule="evenodd" clip-rule="evenodd" d="M23 0H1C.448 0 0 .398 0 .889V15.11c0 .492.448.89 1 .89h22c.552 0 1-.398 1-.889V.89c0-.492-.448-.89-1-.89ZM1 15.111V.89h22v14.22H1Z" fill="#000"/></svg>