<svg width="32" height="24" viewBox="0 0 32 24" fill="none" xmlns="http://www.w3.org/2000/svg">
<g clip-path="url(#clip0_15078_98881)">
<path d="M10.6706 8.00006H21.3293V16.0001H10.6706V8.00006Z" fill="#181A93"/>
<path d="M0 1C0 0.447715 0.447715 0 1 0H31C31.5523 0 32 0.447715 32 1V8H0V1Z" fill="#FFA44A"/>
<path d="M0 16H32V23C32 23.5523 31.5523 24 31 24H1C0.447715 24 0 23.5523 0 23V16Z" fill="#1A9F0B"/>
<path d="M0 8H32V16H0V8Z" fill="white"/>
<path d="M15.9999 14.3969C17.3253 14.3969 18.3999 13.3224 18.3999 11.9969C18.3999 10.6714 17.3253 9.59689 15.9999 9.59689C14.6744 9.59689 13.5999 10.6714 13.5999 11.9969C13.5999 13.3224 14.6744 14.3969 15.9999 14.3969Z" fill="white"/>
<path d="M15.9998 15.1969C14.2384 15.1969 12.7998 13.7583 12.7998 11.9969C12.7998 10.2355 14.2384 8.79688 15.9998 8.79688C17.7612 8.79688 19.1998 10.2355 19.1998 11.9969C19.1998 13.7583 17.7612 15.1969 15.9998 15.1969ZM15.9999 14.3969C17.277 14.3969 18.3999 13.2741 18.3999 11.9969C18.3999 10.7197 17.2841 9.59689 15.9999 9.59689C14.7156 9.59689 13.5999 10.7197 13.5999 11.9969C13.5999 13.2741 14.7227 14.3969 15.9999 14.3969Z" fill="#181A93"/>
<path d="M15.9998 13.5969C16.8835 13.5969 17.5998 12.8806 17.5998 11.9969C17.5998 11.1133 16.8835 10.3969 15.9998 10.3969C15.1162 10.3969 14.3998 11.1133 14.3998 11.9969C14.3998 12.8806 15.1162 13.5969 15.9998 13.5969Z" fill="#181A93"/>
<path opacity="0.2" fill-rule="evenodd" clip-rule="evenodd" d="M31 0H1C0.447715 0 0 0.447715 0 1V23C0 23.5523 0.447715 24 1 24H31C31.5523 24 32 23.5523 32 23V1C32 0.447715 31.5523 0 31 0ZM1 23V1H31V23H1Z" fill="black"/>
</g>
<defs>
<clipPath id="clip0_15078_98881">
<rect width="32" height="24" fill="white"/>
</clipPath>
</defs>
</svg>
