<svg width="18" height="12" viewBox="0 0 18 12" fill="none" xmlns="http://www.w3.org/2000/svg"><g clip-path="url(#a)" fill-rule="evenodd" clip-rule="evenodd"><path d="M.563 0h16.875c.31 0 .562.224.562.5v11c0 .276-.252.5-.563.5H.563C.253 12 0 11.776 0 11.5V.5C0 .224.252 0 .563 0Z" fill="#F7F7F7"/><path d="M9 9c1.864 0 3.375-1.343 3.375-3S10.864 3 9 3 5.625 4.343 5.625 6 7.136 9 9 9Z" fill="#BC002D"/><path opacity=".2" d="M17.438 0H.563C.252 0 0 .224 0 .5v11c0 .276.252.5.563.5h16.875c.31 0 .562-.224.562-.5V.5c0-.276-.252-.5-.563-.5ZM.563 11.5V.5h16.875v11H.563Z" fill="#000"/></g><defs><clipPath id="a"><path fill="#fff" d="M0 0h18v12H0z"/></clipPath></defs></svg>