<svg width="32" height="24" viewBox="0 0 32 24" fill="none" xmlns="http://www.w3.org/2000/svg">
<g clip-path="url(#clip0_15078_98401)">
<path d="M0 0.999999C0 0.447714 0.447715 0 1 0H31C31.5523 0 32 0.447715 32 1V22.9995C32 23.5518 31.5523 23.9995 31 23.9995H1C0.447715 23.9995 0 23.5518 0 22.9995V0.999999Z" fill="#D80027"/>
<path d="M0 0.999999C0 0.447714 0.447715 0 1 0H31C31.5523 0 32 0.447715 32 1V7.9998H0V0.999999ZM0 15.9997H32V22.9995C32 23.5518 31.5523 23.9995 31 23.9995H1C0.447715 23.9995 0 23.5518 0 22.9995V15.9997Z" fill="#0052B4"/>
<path d="M19.3391 13.8255V12.5733H18.5043V10.9037L17.6696 10.069L16.8348 10.9037V9.23423L16 8.39941L15.1652 9.23423V10.9037L14.3304 10.069L13.4957 10.9037V12.5733H12.6609V13.8255H11.8261V15.0776H20.1739V13.8255H19.3391Z" fill="white"/>
<path opacity="0.2" fill-rule="evenodd" clip-rule="evenodd" d="M31 0H1C0.447715 0 0 0.447715 0 1V23C0 23.5523 0.447715 24 1 24H31C31.5523 24 32 23.5523 32 23V1C32 0.447715 31.5523 0 31 0ZM1 23V1H31V23H1Z" fill="black"/>
</g>
<defs>
<clipPath id="clip0_15078_98401">
<rect width="32" height="24" fill="white"/>
</clipPath>
</defs>
</svg>
