<svg width="20" height="15" viewBox="0 0 20 15" fill="none" xmlns="http://www.w3.org/2000/svg"><path fill-rule="evenodd" clip-rule="evenodd" d="M.833 0h18.334c.46 0 .833.373.833.833v13.334c0 .46-.373.833-.833.833H.833A.833.833 0 0 1 0 14.167V.833C0 .373.373 0 .833 0Z" fill="#F7F7F7"/><path fill-rule="evenodd" clip-rule="evenodd" d="M6.875 7.5a3.125 3.125 0 1 0 6.25 0h-6.25Z" fill="#0066B3"/><path fill-rule="evenodd" clip-rule="evenodd" d="M6.875 7.5a3.125 3.125 0 1 1 6.25 0h-6.25Z" fill="#ED1C24"/><path fill-rule="evenodd" clip-rule="evenodd" d="m13.084 4.074.886-.886 2.298 2.298-.886.886-2.298-2.298Zm-6.191 0L4.595 6.372l-.886-.886 2.298-2.298.886.886Zm6.191 7.245 2.298-2.298.886.886-2.298 2.298-.886-.886Zm-6.191 0-.886.886-2.298-2.298.886-.886 2.298 2.298Zm7.441-8.542.886-.885 2.298 2.298-.886.885-2.298-2.298Zm-8.691 0L3.345 5.075l-.886-.885 2.298-2.298.886.885Zm8.691 9.838 2.298-2.297.886.885-2.298 2.298-.886-.885Zm-8.691 0-.886.886-2.298-2.298.886-.885 2.298 2.298Z" fill="#333"/><path opacity=".2" fill-rule="evenodd" clip-rule="evenodd" d="M19.167 0H.833A.833.833 0 0 0 0 .833v13.334c0 .46.373.833.833.833h18.334c.46 0 .833-.373.833-.833V.833A.833.833 0 0 0 19.167 0ZM.833 14.167V.833h18.334v13.334H.833Z" fill="#000"/></svg>