<svg width="20" height="15" viewBox="0 0 20 15" fill="none" xmlns="http://www.w3.org/2000/svg"><path fill-rule="evenodd" clip-rule="evenodd" d="M.833 0h18.334c.46 0 .833.373.833.833v13.334c0 .46-.373.833-.833.833H.833A.833.833 0 0 1 0 14.167V.833C0 .373.373 0 .833 0Z" fill="#fff"/><path fill-rule="evenodd" clip-rule="evenodd" d="M0 1a1 1 0 0 1 1-1h18a1 1 0 0 1 1 1v.667H0V1Zm0 2.333h20V5H0V3.333Zm0 3.334h20v1.666H0V6.667ZM0 10h20v1.667H0V10Zm0 3.333h20V14a1 1 0 0 1-1 1H1a1 1 0 0 1-1-1v-.667Z" fill="#CC0001"/><path fill-rule="evenodd" clip-rule="evenodd" d="M.833 0H10v8.333H0v-7.5C0 .373.373 0 .833 0Z" fill="#010066"/><path fill-rule="evenodd" clip-rule="evenodd" d="M4.829 1.667c.747 0 1.412.377 1.838.964a1.93 1.93 0 0 0-1.192-.409c-1.071 0-1.725.87-1.725 1.945 0 1.073.654 1.944 1.725 1.944a1.93 1.93 0 0 0 1.192-.41c-.426.588-1.091.966-1.838.966-1.286 0-2.329-1.12-2.329-2.5 0-1.381 1.043-2.5 2.329-2.5Zm2.671 2.5a.833.833 0 1 1-1.667 0 .833.833 0 0 1 1.667 0Z" fill="#FC0"/><path opacity=".2" fill-rule="evenodd" clip-rule="evenodd" d="M19.167 0H.833A.833.833 0 0 0 0 .833v13.334c0 .46.373.833.833.833h18.334c.46 0 .833-.373.833-.833V.833A.833.833 0 0 0 19.167 0ZM.833 14.167V.833h18.334v13.334H.833Z" fill="#000"/></svg>