<svg width="32" height="24" viewBox="0 0 32 24" fill="none" xmlns="http://www.w3.org/2000/svg">
<g clip-path="url(#clip0_15078_98360)">
<path d="M30.9998 0C31.5521 0 31.9998 0.447715 31.9998 1V11.9997H17.9998L0.366943 0.22995L0.413839 0.195783C0.562012 0.0878287 0.73701 0.0226841 0.919706 0.00746947L1.0094 0H30.9998Z" fill="#0052B4"/>
<path d="M31.9998 11.9997L31.9998 22.9993C31.9998 23.5516 31.5521 23.9993 30.9998 23.9993L1.0094 23.9993H1.00142C0.779128 23.9993 0.563172 23.9252 0.387672 23.7888L0.354492 23.763L17.9998 11.9997H31.9998Z" fill="#D80027"/>
<path d="M11.3841 11.9995L9.4654 11.097L10.4872 9.23882L8.40368 9.63735L8.13966 7.53268L6.68841 9.08061L5.23723 7.53268L4.97321 9.63735L2.88978 9.23875L3.91149 11.097L1.9928 11.9995L3.91149 12.902L2.88978 14.7602L4.97335 14.3616L5.23723 16.4663L6.68841 14.9184L8.13966 16.4663L8.40368 14.3616L10.4871 14.7602L9.46533 12.9021L11.3841 11.9995ZM1.53197 2.26874L2.17048 3.16143L3.21666 2.82997L2.565 3.7131L3.20351 4.60565L2.16225 4.25886L1.5106 5.14192L1.51882 4.04448L0.477565 3.69756L1.52381 3.36625L1.53197 2.26874ZM1.53197 18.8571L2.17048 19.7498L3.21666 19.4183L2.565 20.3014L3.20351 21.194L2.16225 20.8472L1.5106 21.7302L1.51882 20.6328L0.477565 20.2859L1.52381 19.9546L1.53197 18.8571ZM14.7933 10.5629L14.1548 11.4556L13.1086 11.1242L13.7603 12.0072L13.1218 12.8999L14.163 12.5531L14.8147 13.4361L14.8065 12.3387L15.8477 11.9918L14.8015 11.6604L14.7933 10.5629Z" fill="#FFDA44"/>
<path opacity="0.2" fill-rule="evenodd" clip-rule="evenodd" d="M31 0H1C0.447715 0 0 0.447715 0 1V23C0 23.5523 0.447715 24 1 24H31C31.5523 24 32 23.5523 32 23V1C32 0.447715 31.5523 0 31 0ZM1 23V1H31V23H1Z" fill="black"/>
</g>
<defs>
<clipPath id="clip0_15078_98360">
<rect width="32" height="24" fill="white"/>
</clipPath>
</defs>
</svg>
